<?xml version="1.0" encoding="iso-8859-1"?>
<!-- Generator: Adobe Illustrator 19.0.0, SVG Export Plug-In . SVG Version: 6.00 Build 0)  -->
<svg version="1.1" id="Layer_1" xmlns="http://www.w3.org/2000/svg" xmlns:xlink="http://www.w3.org/1999/xlink" x="0px" y="0px"
	 viewBox="0 0 495 495" style="enable-background:new 0 0 495 495;" xml:space="preserve">
<g>
	<path style="fill:#9BC9FF;" d="M180,107.5c0-37.22,30.28-67.5,67.5-67.5S315,70.28,315,107.5V175h40v-67.5
		C355,48.224,306.776,0,247.5,0S140,48.224,140,107.5V175h40V107.5z"/>
	<path style="fill:#003F8A;" d="M247.5,175v96.431c22.056,0,40,17.944,40,40c0,14.773-8.056,27.691-20,34.619v50.566h-20V495H425
		V175H247.5z"/>
	<path style="fill:#2488FF;" d="M227.5,396.616V346.05c-11.944-6.927-20-19.846-20-34.619c0-22.056,17.944-40,40-40V175H70v320
		h177.5v-98.384H227.5z"/>
	<path style="fill:#BDDBFF;" d="M207.5,311.431c0,14.773,8.056,27.692,20,34.619v50.566h40V346.05c11.944-6.927,20-19.846,20-34.619
		c0-22.056-17.944-40-40-40C225.444,271.431,207.5,289.375,207.5,311.431z"/>
</g>
<g>
</g>
<g>
</g>
<g>
</g>
<g>
</g>
<g>
</g>
<g>
</g>
<g>
</g>
<g>
</g>
<g>
</g>
<g>
</g>
<g>
</g>
<g>
</g>
<g>
</g>
<g>
</g>
<g>
</g>
</svg>
